<svg xmlns:xlink="http://www.w3.org/1999/xlink"  id="Layer_1" data-name="Layer 1" xmlns="http://www.w3.org/2000/svg" viewBox="0 0 303.93 109.66"><defs><style>.cls-1{fill:#030608;}.cls-2{fill:#fff;}.cls-3{fill:#ababab;}</style></defs><path class="cls-1" d="M413.81,260.58H157.41c-13.12,0-23.76,9.35-23.76,20.88v67.9c0,11.53,10.64,20.88,23.76,20.88h256.4c13.12,0,23.76-9.35,23.76-20.88v-67.9C437.57,269.93,426.93,260.58,413.81,260.58Z" transform="translate(-133.65 -260.58)"/><path class="cls-2" d="M156.34,315.27a20.4,20.4,0,0,1,2.8-10.53c3-4.75,7.3-6.75,12.83-5.78a23.64,23.64,0,0,1,4,1,10.84,10.84,0,0,0,7.81-.13,17.87,17.87,0,0,1,6.89-1.33,12.5,12.5,0,0,1,9.15,4.55c.62.7.53,1-.1,1.57a14.46,14.46,0,0,0-4.51,6.33,12.33,12.33,0,0,0,5.91,14.65c.82.42,1,.75.6,1.6a35.4,35.4,0,0,1-5.95,10c-2.22,2.53-4.84,4.06-8.34,3.17a31,31,0,0,1-3.43-1.08,10.85,10.85,0,0,0-8.19.15l-1.74.68a7.19,7.19,0,0,1-8-1.53c-3.53-3.18-5.59-7.32-7.4-11.59A29.64,29.64,0,0,1,156.34,315.27Z" transform="translate(-133.65 -260.58)"/><path class="cls-2" d="M189.78,288c-.07,5.1-4.81,10.49-9.64,11.22-.94.15-1.23-.1-1.21-1.08a12.24,12.24,0,0,1,9.65-11.87c.87-.2,1.14.07,1.15.87C189.74,287.52,189.77,287.88,189.78,288Z" transform="translate(-133.65 -260.58)"/><path class="cls-3" d="M259.52,300.46V287.31h4.53a11.37,11.37,0,0,1,2.34.19,4.65,4.65,0,0,1,1.93.94,5.38,5.38,0,0,1,1.55,2.25,8.67,8.67,0,0,1,.52,3.13,9.25,9.25,0,0,1-.35,2.65,6.59,6.59,0,0,1-.9,1.92,4.67,4.67,0,0,1-1.2,1.19,4.79,4.79,0,0,1-1.57.66,8.88,8.88,0,0,1-2.11.22Zm1.74-1.55h2.8a6.84,6.84,0,0,0,2-.24,2.87,2.87,0,0,0,1.18-.68,4.06,4.06,0,0,0,1-1.67,8.11,8.11,0,0,0,.34-2.53,6.13,6.13,0,0,0-.67-3.17,3.44,3.44,0,0,0-1.65-1.49,6.86,6.86,0,0,0-2.25-.26h-2.76Z" transform="translate(-133.65 -260.58)"/><path class="cls-3" d="M272.89,295.7a4.89,4.89,0,0,1,1.48-3.92,4.44,4.44,0,0,1,3-1.06,4.26,4.26,0,0,1,3.21,1.29,4.9,4.9,0,0,1,1.25,3.56,6.27,6.27,0,0,1-.55,2.89,3.92,3.92,0,0,1-1.61,1.64,4.76,4.76,0,0,1-2.3.58,4.29,4.29,0,0,1-3.23-1.28A5.15,5.15,0,0,1,272.89,295.7Zm1.66,0a4.07,4.07,0,0,0,.8,2.74,2.66,2.66,0,0,0,4,0,4.17,4.17,0,0,0,.8-2.79,4,4,0,0,0-.8-2.68,2.67,2.67,0,0,0-4,0A4.07,4.07,0,0,0,274.55,295.7Z" transform="translate(-133.65 -260.58)"/><path class="cls-3" d="M286.39,300.46l-2.92-9.52h1.67l1.52,5.5.56,2c0-.1.19-.75.5-2l1.51-5.58h1.66l1.43,5.52.47,1.82.55-1.83,1.63-5.51h1.57l-3,9.52h-1.68l-1.52-5.7-.37-1.62-1.92,7.32Z" transform="translate(-133.65 -260.58)"/><path class="cls-3" d="M298.82,300.46v-9.52h1.45v1.35a3.44,3.44,0,0,1,3-1.57,4.13,4.13,0,0,1,1.59.31,2.57,2.57,0,0,1,1.08.81,3.24,3.24,0,0,1,.5,1.2,9.21,9.21,0,0,1,.09,1.57v5.85h-1.62v-5.79a4.58,4.58,0,0,0-.18-1.48,1.63,1.63,0,0,0-.67-.78,2.18,2.18,0,0,0-1.13-.29,2.6,2.6,0,0,0-1.78.66,3.21,3.21,0,0,0-.75,2.48v5.2Z" transform="translate(-133.65 -260.58)"/><path class="cls-3" d="M309.92,300.46V287.31h1.61v13.15Z" transform="translate(-133.65 -260.58)"/><path class="cls-3" d="M314.35,295.7a4.92,4.92,0,0,1,1.47-3.92,4.47,4.47,0,0,1,3-1.06A4.26,4.26,0,0,1,322,292a4.9,4.9,0,0,1,1.25,3.56,6.4,6.4,0,0,1-.55,2.89,4,4,0,0,1-1.61,1.64,4.76,4.76,0,0,1-2.3.58,4.29,4.29,0,0,1-3.23-1.28A5.11,5.11,0,0,1,314.35,295.7Zm1.66,0a4.07,4.07,0,0,0,.8,2.74,2.66,2.66,0,0,0,4,0,4.17,4.17,0,0,0,.8-2.79,4,4,0,0,0-.8-2.68,2.67,2.67,0,0,0-4,0A4.07,4.07,0,0,0,316,295.7Z" transform="translate(-133.65 -260.58)"/><path class="cls-3" d="M332.3,299.29a5.92,5.92,0,0,1-1.72,1.08,5.2,5.2,0,0,1-1.78.31,3.5,3.5,0,0,1-2.42-.77,2.53,2.53,0,0,1-.84-2,2.67,2.67,0,0,1,.32-1.28,2.63,2.63,0,0,1,.83-.92,3.89,3.89,0,0,1,1.17-.53,10.25,10.25,0,0,1,1.43-.25,15,15,0,0,0,2.88-.55c0-.22,0-.36,0-.42a1.75,1.75,0,0,0-.46-1.39,2.66,2.66,0,0,0-1.84-.55,2.81,2.81,0,0,0-1.68.4,2.42,2.42,0,0,0-.8,1.41l-1.58-.21a3.81,3.81,0,0,1,.71-1.64,3,3,0,0,1,1.42-1,6.3,6.3,0,0,1,2.17-.34,5.75,5.75,0,0,1,2,.29,2.59,2.59,0,0,1,1.12.72,2.48,2.48,0,0,1,.5,1.1,8.48,8.48,0,0,1,.08,1.49v2.15a22.15,22.15,0,0,0,.11,2.85,3.37,3.37,0,0,0,.4,1.14h-1.68A3.35,3.35,0,0,1,332.3,299.29Zm-.13-3.61a11.38,11.38,0,0,1-2.64.61,6.11,6.11,0,0,0-1.4.33,1.4,1.4,0,0,0-.38,2.36,2.11,2.11,0,0,0,1.43.43,3.32,3.32,0,0,0,1.66-.4,2.56,2.56,0,0,0,1.07-1.12,4,4,0,0,0,.26-1.62Z" transform="translate(-133.65 -260.58)"/><path class="cls-3" d="M343.41,300.46v-1.2a3,3,0,0,1-2.67,1.42,3.7,3.7,0,0,1-2.09-.63,4.11,4.11,0,0,1-1.48-1.75,6.08,6.08,0,0,1-.53-2.59,6.75,6.75,0,0,1,.48-2.59,3.73,3.73,0,0,1,1.42-1.78,3.87,3.87,0,0,1,2.13-.62,3.09,3.09,0,0,1,1.53.37,3.15,3.15,0,0,1,1.1.94v-4.72h1.6v13.15Zm-5.11-4.75a4.18,4.18,0,0,0,.77,2.74,2.34,2.34,0,0,0,1.82.9,2.29,2.29,0,0,0,1.8-.86,4,4,0,0,0,.74-2.65,4.5,4.5,0,0,0-.75-2.87,2.31,2.31,0,0,0-1.86-.91,2.22,2.22,0,0,0-1.8.88A4.33,4.33,0,0,0,338.3,295.71Z" transform="translate(-133.65 -260.58)"/><path class="cls-3" d="M353.78,295.7a4.92,4.92,0,0,1,1.47-3.92,4.47,4.47,0,0,1,3-1.06,4.26,4.26,0,0,1,3.21,1.29,4.9,4.9,0,0,1,1.25,3.56,6.4,6.4,0,0,1-.55,2.89,4,4,0,0,1-1.61,1.64,4.76,4.76,0,0,1-2.3.58A4.29,4.29,0,0,1,355,299.4,5.11,5.11,0,0,1,353.78,295.7Zm1.66,0a4.07,4.07,0,0,0,.8,2.74,2.66,2.66,0,0,0,4,0,4.17,4.17,0,0,0,.8-2.79,4,4,0,0,0-.8-2.68,2.67,2.67,0,0,0-4,0A4.07,4.07,0,0,0,355.44,295.7Z" transform="translate(-133.65 -260.58)"/><path class="cls-3" d="M365.52,300.46v-9.52H367v1.35a3.44,3.44,0,0,1,3-1.57,4.1,4.1,0,0,1,1.59.31,2.57,2.57,0,0,1,1.08.81,3.08,3.08,0,0,1,.5,1.2,9.21,9.21,0,0,1,.09,1.57v5.85h-1.61v-5.79a4.53,4.53,0,0,0-.19-1.48,1.63,1.63,0,0,0-.67-.78,2.18,2.18,0,0,0-1.13-.29,2.62,2.62,0,0,0-1.78.66,3.21,3.21,0,0,0-.75,2.48v5.2Z" transform="translate(-133.65 -260.58)"/><path class="cls-2" d="M237.73,334.4,247.51,312h3.62l9.78,22.39h-4.13L254.53,329H244l-2.29,5.37Zm7.72-8.83h7.65l-3.84-8.89Z" transform="translate(-133.65 -260.58)"/><path class="cls-2" d="M264.28,339.48V317.63h3.84v2.8a6.71,6.71,0,0,1,5.68-3.15,7.44,7.44,0,0,1,5.5,2.37,8.78,8.78,0,0,1,2.32,6.4,8.69,8.69,0,0,1-2.32,6.33,7.44,7.44,0,0,1-5.5,2.37,6.83,6.83,0,0,1-5.68-3v7.69Zm8.63-8.07a4.45,4.45,0,0,0,3.42-1.49,5.57,5.57,0,0,0,1.38-3.94,5.44,5.44,0,0,0-1.4-3.87,4.45,4.45,0,0,0-3.4-1.49,4.56,4.56,0,0,0-3.44,1.52,5.48,5.48,0,0,0-1.45,3.91,5.35,5.35,0,0,0,1.45,3.85A4.58,4.58,0,0,0,272.91,331.41Z" transform="translate(-133.65 -260.58)"/><path class="cls-2" d="M285.55,339.48V317.63h3.85v2.8a6.69,6.69,0,0,1,5.68-3.15,7.41,7.41,0,0,1,5.49,2.37,8.74,8.74,0,0,1,2.32,6.4,8.64,8.64,0,0,1-2.32,6.33,7.41,7.41,0,0,1-5.49,2.37,6.82,6.82,0,0,1-5.68-3v7.69Zm8.64-8.07a4.44,4.44,0,0,0,3.41-1.49A5.57,5.57,0,0,0,299,326a5.44,5.44,0,0,0-1.4-3.87,4.47,4.47,0,0,0-3.4-1.49,4.59,4.59,0,0,0-3.45,1.52,5.47,5.47,0,0,0-1.44,3.91,5.34,5.34,0,0,0,1.44,3.85A4.62,4.62,0,0,0,294.19,331.41Z" transform="translate(-133.65 -260.58)"/><path class="cls-2" d="M322.1,334.72a11.21,11.21,0,0,1-7.11-2.51l1.71-2.61a9.08,9.08,0,0,0,5.5,2.07,3.25,3.25,0,0,0,1.92-.5,1.59,1.59,0,0,0,.68-1.38,1.28,1.28,0,0,0-.24-.77,2,2,0,0,0-.84-.62,9.3,9.3,0,0,0-1-.42l-1.37-.41-.29-.09c-.59-.17-1.09-.34-1.5-.5a10.39,10.39,0,0,1-1.38-.65,4.73,4.73,0,0,1-1.24-.9,4,4,0,0,1-.8-1.26,4.45,4.45,0,0,1-.31-1.71,4.57,4.57,0,0,1,1.69-3.72,6.53,6.53,0,0,1,4.28-1.39,11,11,0,0,1,6.16,1.9L326.42,322a9.25,9.25,0,0,0-4.73-1.59,2.76,2.76,0,0,0-1.73.48,1.53,1.53,0,0,0-.62,1.27,1.25,1.25,0,0,0,.56,1,4.06,4.06,0,0,0,1.11.66l1.79.62.16.06.16,0a19,19,0,0,1,1.87.68,10.75,10.75,0,0,1,1.61.91,3.83,3.83,0,0,1,1.28,1.41,4.07,4.07,0,0,1,.45,1.95,4.68,4.68,0,0,1-1.75,3.91A7.06,7.06,0,0,1,322.1,334.72Z" transform="translate(-133.65 -260.58)"/><path class="cls-2" d="M337.85,334.68c-3.22,0-4.82-1.64-4.82-4.92v-8.83H330.9v-3.3H333V313h3.84v4.6h4.51v3.3h-4.51v8.23a1.83,1.83,0,0,0,2.06,2.09,5.25,5.25,0,0,0,2.38-.57v3.15A6.93,6.93,0,0,1,337.85,334.68Z" transform="translate(-133.65 -260.58)"/><path class="cls-2" d="M353.22,334.78a8.64,8.64,0,0,1-6.35-2.54,8.8,8.8,0,0,1,0-12.4,9.24,9.24,0,0,1,12.75,0,8.78,8.78,0,0,1,0,12.4A8.74,8.74,0,0,1,353.22,334.78Zm.07-3.34a4.7,4.7,0,0,0,3.68-1.55,5.56,5.56,0,0,0,1.4-3.84,5.43,5.43,0,0,0-1.46-3.83,4.83,4.83,0,0,0-3.69-1.57,4.69,4.69,0,0,0-3.65,1.55,5.56,5.56,0,0,0-1.4,3.85,5.45,5.45,0,0,0,1.46,3.81A4.77,4.77,0,0,0,353.29,331.44Z" transform="translate(-133.65 -260.58)"/><path class="cls-2" d="M366.12,334.4V317.63H370v3.78c1.18-2.86,3.16-4.22,5.94-4.1v4.07h-.23a5.36,5.36,0,0,0-4.16,1.7A7.1,7.1,0,0,0,370,328v6.38Z" transform="translate(-133.65 -260.58)"/><path class="cls-2" d="M386.92,334.78a8.37,8.37,0,0,1-6.15-2.45,8.51,8.51,0,0,1-2.46-6.32,8.85,8.85,0,0,1,2.32-6.19,7.6,7.6,0,0,1,5.87-2.54,7.22,7.22,0,0,1,5.92,2.59,9.84,9.84,0,0,1,2.12,6.43,6,6,0,0,1-.07,1.08H382.15a5,5,0,0,0,1.62,3.13,4.75,4.75,0,0,0,3.21,1.13,6.4,6.4,0,0,0,4.54-2l2.25,2A8.47,8.47,0,0,1,386.92,334.78Zm-4.8-9.94h8.61a5.4,5.4,0,0,0-1.31-3.18,3.78,3.78,0,0,0-2.95-1.23,3.87,3.87,0,0,0-2.92,1.22A5.48,5.48,0,0,0,382.12,324.84Z" transform="translate(-133.65 -260.58)"/></svg>