<svg xmlns:xlink="http://www.w3.org/1999/xlink"  id="Layer_1" data-name="Layer 1" xmlns="http://www.w3.org/2000/svg" viewBox="0 0 303.93 109.66"><defs><style>.cls-1{fill:#030608;}.cls-2{fill:#ababab;}.cls-3{fill:#7bc5e9;}.cls-4{fill:#d04c51;}.cls-5{fill:#82bd76;}.cls-6{fill:#eac647;}.cls-7{fill:#fff;}</style></defs><path class="cls-1" d="M401.38,325.06H145c-13.12,0-23.76,9.34-23.76,20.87v67.91c0,11.53,10.64,20.88,23.76,20.88h256.4c13.12,0,23.76-9.35,23.76-20.88V345.93C425.14,334.4,414.5,325.06,401.38,325.06Z" transform="translate(-121.22 -325.06)"/><path class="cls-2" d="M249.61,364.2V351.05h4.53a11.37,11.37,0,0,1,2.34.19,4.53,4.53,0,0,1,1.93.94,5.38,5.38,0,0,1,1.55,2.25,8.67,8.67,0,0,1,.52,3.13,9.25,9.25,0,0,1-.35,2.65,6.59,6.59,0,0,1-.9,1.92,4.67,4.67,0,0,1-1.2,1.19,4.79,4.79,0,0,1-1.57.66,8.88,8.88,0,0,1-2.11.22Zm1.74-1.55h2.8a6.84,6.84,0,0,0,2-.24,2.87,2.87,0,0,0,1.18-.68,4.12,4.12,0,0,0,1-1.67,8.11,8.11,0,0,0,.34-2.53,6.13,6.13,0,0,0-.67-3.17,3.44,3.44,0,0,0-1.65-1.49,6.81,6.81,0,0,0-2.25-.27h-2.76Z" transform="translate(-121.22 -325.06)"/><path class="cls-2" d="M263,359.44a4.89,4.89,0,0,1,1.48-3.92,4.38,4.38,0,0,1,3-1.06,4.26,4.26,0,0,1,3.21,1.29,4.9,4.9,0,0,1,1.25,3.56,6.27,6.27,0,0,1-.55,2.89,3.92,3.92,0,0,1-1.61,1.64,4.76,4.76,0,0,1-2.3.58,4.29,4.29,0,0,1-3.23-1.28A5.15,5.15,0,0,1,263,359.44Zm1.66,0a4.07,4.07,0,0,0,.8,2.74,2.66,2.66,0,0,0,4,0,4.17,4.17,0,0,0,.8-2.79,4,4,0,0,0-.8-2.68,2.67,2.67,0,0,0-4,0A4.07,4.07,0,0,0,264.64,359.44Z" transform="translate(-121.22 -325.06)"/><path class="cls-2" d="M276.48,364.2l-2.92-9.52h1.67l1.52,5.5.56,2c0-.1.19-.76.5-2l1.51-5.58H281l1.43,5.52.47,1.82.55-1.84,1.63-5.5h1.57l-3,9.52H282l-1.52-5.7-.37-1.63-1.92,7.33Z" transform="translate(-121.22 -325.06)"/><path class="cls-2" d="M288.91,364.2v-9.52h1.45V356a3.42,3.42,0,0,1,3-1.57,4,4,0,0,1,1.59.31,2.57,2.57,0,0,1,1.08.81,3.24,3.24,0,0,1,.5,1.2,9.13,9.13,0,0,1,.09,1.57v5.85H295v-5.79a4.58,4.58,0,0,0-.18-1.48,1.63,1.63,0,0,0-.67-.78,2.18,2.18,0,0,0-1.13-.29,2.6,2.6,0,0,0-1.78.66,3.21,3.21,0,0,0-.75,2.48v5.2Z" transform="translate(-121.22 -325.06)"/><path class="cls-2" d="M300,364.2V351.05h1.61V364.2Z" transform="translate(-121.22 -325.06)"/><path class="cls-2" d="M304.44,359.44a4.92,4.92,0,0,1,1.47-3.92,4.42,4.42,0,0,1,3-1.06,4.26,4.26,0,0,1,3.21,1.29,4.9,4.9,0,0,1,1.25,3.56,6.4,6.4,0,0,1-.55,2.89,4,4,0,0,1-1.61,1.64,4.76,4.76,0,0,1-2.3.58,4.29,4.29,0,0,1-3.23-1.28A5.11,5.11,0,0,1,304.44,359.44Zm1.66,0a4.07,4.07,0,0,0,.8,2.74,2.66,2.66,0,0,0,4,0,4.17,4.17,0,0,0,.8-2.79,4,4,0,0,0-.8-2.68,2.67,2.67,0,0,0-4,0A4.07,4.07,0,0,0,306.1,359.44Z" transform="translate(-121.22 -325.06)"/><path class="cls-2" d="M322.39,363a5.67,5.67,0,0,1-1.72,1.07,5,5,0,0,1-1.78.32,3.5,3.5,0,0,1-2.42-.77,2.53,2.53,0,0,1-.84-2,2.67,2.67,0,0,1,.32-1.28,2.76,2.76,0,0,1,.83-.93A4.13,4.13,0,0,1,318,359a10.25,10.25,0,0,1,1.43-.25,15,15,0,0,0,2.88-.55c0-.22,0-.36,0-.42a1.75,1.75,0,0,0-.46-1.39,2.66,2.66,0,0,0-1.84-.55,2.81,2.81,0,0,0-1.68.4,2.39,2.39,0,0,0-.8,1.41l-1.58-.22a3.82,3.82,0,0,1,.71-1.63,3,3,0,0,1,1.42-1,6.3,6.3,0,0,1,2.17-.34,5.75,5.75,0,0,1,2,.29,2.59,2.59,0,0,1,1.12.72,2.48,2.48,0,0,1,.5,1.1,8.4,8.4,0,0,1,.08,1.49v2.15a22.15,22.15,0,0,0,.11,2.85,3.37,3.37,0,0,0,.4,1.14h-1.68A3.35,3.35,0,0,1,322.39,363Zm-.13-3.61a11.38,11.38,0,0,1-2.64.61,7.17,7.17,0,0,0-1.41.32,1.43,1.43,0,0,0-.63.53,1.39,1.39,0,0,0-.23.77,1.37,1.37,0,0,0,.49,1.07,2.11,2.11,0,0,0,1.43.43,3.32,3.32,0,0,0,1.66-.4,2.56,2.56,0,0,0,1.07-1.12,4,4,0,0,0,.26-1.62Z" transform="translate(-121.22 -325.06)"/><path class="cls-2" d="M333.5,364.2V363a3,3,0,0,1-2.67,1.42,3.7,3.7,0,0,1-2.09-.63,4.11,4.11,0,0,1-1.48-1.75,6.08,6.08,0,0,1-.53-2.59,6.75,6.75,0,0,1,.48-2.59,3.73,3.73,0,0,1,1.42-1.78,3.87,3.87,0,0,1,2.13-.62,3.09,3.09,0,0,1,1.53.37,3.15,3.15,0,0,1,1.1.94v-4.72H335V364.2Zm-5.11-4.75a4.18,4.18,0,0,0,.77,2.74,2.34,2.34,0,0,0,1.82.9,2.29,2.29,0,0,0,1.8-.86,4,4,0,0,0,.74-2.65,4.5,4.5,0,0,0-.75-2.87,2.31,2.31,0,0,0-1.86-.91,2.22,2.22,0,0,0-1.8.88A4.33,4.33,0,0,0,328.39,359.45Z" transform="translate(-121.22 -325.06)"/><path class="cls-2" d="M343.87,359.44a4.92,4.92,0,0,1,1.47-3.92,4.42,4.42,0,0,1,3-1.06,4.26,4.26,0,0,1,3.21,1.29,4.9,4.9,0,0,1,1.25,3.56,6.4,6.4,0,0,1-.55,2.89,4,4,0,0,1-1.61,1.64,4.76,4.76,0,0,1-2.3.58,4.29,4.29,0,0,1-3.23-1.28A5.11,5.11,0,0,1,343.87,359.44Zm1.66,0a4.07,4.07,0,0,0,.8,2.74,2.66,2.66,0,0,0,4,0,4.17,4.17,0,0,0,.8-2.79,4,4,0,0,0-.8-2.68,2.67,2.67,0,0,0-4,0A4.07,4.07,0,0,0,345.53,359.44Z" transform="translate(-121.22 -325.06)"/><path class="cls-2" d="M355.61,364.2v-9.52h1.45V356a3.42,3.42,0,0,1,3-1.57,3.92,3.92,0,0,1,1.59.31,2.57,2.57,0,0,1,1.08.81,3.08,3.08,0,0,1,.5,1.2,9.13,9.13,0,0,1,.09,1.57v5.85h-1.61v-5.79a4.53,4.53,0,0,0-.19-1.48,1.63,1.63,0,0,0-.67-.78,2.18,2.18,0,0,0-1.13-.29,2.62,2.62,0,0,0-1.78.66,3.21,3.21,0,0,0-.75,2.48v5.2Z" transform="translate(-121.22 -325.06)"/><path class="cls-3" d="M143.38,402.66a4.15,4.15,0,0,1-.64-2.59V352.92a3.63,3.63,0,0,1,.81-2.78,1.93,1.93,0,0,1,1.28.81c3.67,3.76,7.32,7.54,11,11.28,4.18,4.23,8.4,8.43,12.6,12.65a3.32,3.32,0,0,1,1,1.35,4.52,4.52,0,0,1-.39.58q-9.75,9.88-19.53,19.75C147.5,398.61,145.62,400.81,143.38,402.66Z" transform="translate(-121.22 -325.06)"/><path class="cls-4" d="M143.38,402.66c2.24-1.85,4.12-4.05,6.16-6.1q9.79-9.84,19.53-19.75a4.52,4.52,0,0,0,.39-.58l.41,0,9,9.16c-2.43,1.75-5.11,3.08-7.68,4.58-7.54,4.4-15.11,8.75-22.67,13.11a5.8,5.8,0,0,1-2.37.93A2.4,2.4,0,0,1,143.38,402.66Z" transform="translate(-121.22 -325.06)"/><path class="cls-5" d="M169.87,376.19l-.41,0a3.32,3.32,0,0,0-1-1.35c-4.2-4.22-8.42-8.42-12.6-12.65-3.69-3.74-7.34-7.52-11-11.28a1.93,1.93,0,0,0-1.28-.81c.85-1.3,2-1.35,3.35-.9a29.22,29.22,0,0,1,5,2.73c8.46,4.84,16.9,9.73,25.34,14.6.37.22.7.49,1.06.74a29,29,0,0,1-3,3.21C173.52,372.42,171.69,374.3,169.87,376.19Z" transform="translate(-121.22 -325.06)"/><path class="cls-6" d="M169.87,376.19c1.82-1.89,3.65-3.77,5.47-5.67a29,29,0,0,0,3-3.21c3.91,2,7.72,4.27,11.48,6.58a3,3,0,0,1,.28,5,111.13,111.13,0,0,1-11.23,6.42Q174.35,380.78,169.87,376.19Z" transform="translate(-121.22 -325.06)"/><path class="cls-7" d="M223.1,398.52a11.15,11.15,0,0,1-8.33-3.26,12,12,0,0,1,.06-16.37,11,11,0,0,1,8.21-3.36,13.64,13.64,0,0,1,4.76.74,13.07,13.07,0,0,1,3.78,2.27l-2.48,3a10.47,10.47,0,0,0-2.81-1.8,8.91,8.91,0,0,0-3.41-.58,6.64,6.64,0,0,0-5.13,2.31,8.12,8.12,0,0,0-2.08,5.59,8,8,0,0,0,2.1,5.7,7.12,7.12,0,0,0,5.46,2.24,8.76,8.76,0,0,0,5.37-1.68v-4.16h-5.69v-3.4h9.47v9.34A13.87,13.87,0,0,1,223.1,398.52Z" transform="translate(-121.22 -325.06)"/><path class="cls-7" d="M245,398.52a8.64,8.64,0,0,1-6.35-2.54,8.8,8.8,0,0,1,0-12.4,9.24,9.24,0,0,1,12.75,0,8.78,8.78,0,0,1,0,12.4A8.74,8.74,0,0,1,245,398.52Zm.07-3.34a4.7,4.7,0,0,0,3.68-1.55,5.56,5.56,0,0,0,1.4-3.84,5.43,5.43,0,0,0-1.46-3.83,4.83,4.83,0,0,0-3.69-1.57,4.69,4.69,0,0,0-3.65,1.55,5.56,5.56,0,0,0-1.4,3.85,5.45,5.45,0,0,0,1.46,3.81A4.81,4.81,0,0,0,245.05,395.18Z" transform="translate(-121.22 -325.06)"/><path class="cls-7" d="M265.85,398.52A8.62,8.62,0,0,1,259.5,396a8.78,8.78,0,0,1,0-12.4,9.24,9.24,0,0,1,12.75,0,8.46,8.46,0,0,1,2.55,6.23,8.35,8.35,0,0,1-2.57,6.17A8.7,8.7,0,0,1,265.85,398.52Zm.06-3.34a4.7,4.7,0,0,0,3.68-1.55,5.56,5.56,0,0,0,1.4-3.84,5.43,5.43,0,0,0-1.46-3.83,4.79,4.79,0,0,0-3.68-1.57,4.72,4.72,0,0,0-3.66,1.55,5.56,5.56,0,0,0-1.39,3.85,5.41,5.41,0,0,0,1.46,3.81A4.77,4.77,0,0,0,265.91,395.18Z" transform="translate(-121.22 -325.06)"/><path class="cls-7" d="M286.2,403.28a14.2,14.2,0,0,1-7.49-2l1.43-2.89a11.07,11.07,0,0,0,6,1.78,5.43,5.43,0,0,0,3.93-1.32,5.08,5.08,0,0,0,1.37-3.83v-1.3a7.2,7.2,0,0,1-5.91,3.08,7.48,7.48,0,0,1-5.36-2.16A7.9,7.9,0,0,1,285.5,381a7.36,7.36,0,0,1,5.88,2.86v-2.51h3.84v13.34q0,4.19-2.13,6.32T286.2,403.28Zm.32-9.72a5,5,0,0,0,3.48-1.31,4.35,4.35,0,0,0,1.44-3.35,4.3,4.3,0,0,0-1.44-3.34,5,5,0,0,0-3.48-1.3,4.75,4.75,0,0,0-3.4,1.29,4.79,4.79,0,0,0,0,6.71A4.74,4.74,0,0,0,286.52,393.56Z" transform="translate(-121.22 -325.06)"/><path class="cls-7" d="M300.24,398.14V375h3.84v23.18Z" transform="translate(-121.22 -325.06)"/><path class="cls-7" d="M316.78,398.52a8.37,8.37,0,0,1-6.14-2.45,8.51,8.51,0,0,1-2.46-6.32,8.89,8.89,0,0,1,2.31-6.19,7.64,7.64,0,0,1,5.88-2.54,7.2,7.2,0,0,1,5.92,2.59A9.82,9.82,0,0,1,324.4,390a7.41,7.41,0,0,1-.06,1.08H312a5,5,0,0,0,1.62,3.13,4.7,4.7,0,0,0,3.2,1.12,6.39,6.39,0,0,0,4.55-2l2.25,2A8.47,8.47,0,0,1,316.78,398.52ZM312,388.58h8.6a5.46,5.46,0,0,0-1.3-3.18,3.8,3.8,0,0,0-3-1.24,3.86,3.86,0,0,0-2.92,1.23A5.42,5.42,0,0,0,312,388.58Z" transform="translate(-121.22 -325.06)"/><path class="cls-7" d="M338.25,398.14V375.91H347a9,9,0,0,1,6.16,2,6.94,6.94,0,0,1,2.29,5.46,6.7,6.7,0,0,1-2.53,5.59,9.87,9.87,0,0,1-6.36,2h-4.42v7.15Zm3.9-10.67h4.54a5.21,5.21,0,0,0,3.5-1.11,3.67,3.67,0,0,0,1.3-2.93,3.53,3.53,0,0,0-1.29-2.93,5.42,5.42,0,0,0-3.51-1h-4.54Z" transform="translate(-121.22 -325.06)"/><path class="cls-7" d="M359.24,398.14V375h3.84v23.18Z" transform="translate(-121.22 -325.06)"/><path class="cls-7" d="M382.17,398.14h-3.82v-2.07a6.73,6.73,0,0,1-5.43,2.42,6.55,6.55,0,0,1-4.24-1.39,4.65,4.65,0,0,1-1.73-3.85,4.8,4.8,0,0,1,1.88-4.1,8,8,0,0,1,4.92-1.4,15.37,15.37,0,0,1,4.64.7v-.32a3.32,3.32,0,0,0-1.07-2.66,4.51,4.51,0,0,0-3.06-.92,12.57,12.57,0,0,0-4.8,1l-1-3.08a15.42,15.42,0,0,1,6.38-1.39,7.52,7.52,0,0,1,5.51,1.84,7,7,0,0,1,1.86,5.24Zm-3.72-6.07v-.95a10.38,10.38,0,0,0-3.84-.67,5,5,0,0,0-2.83.7,2.25,2.25,0,0,0-1,2,2.12,2.12,0,0,0,.93,1.81,3.85,3.85,0,0,0,2.31.67,5,5,0,0,0,3.2-1A3.09,3.09,0,0,0,378.45,392.07Z" transform="translate(-121.22 -325.06)"/><path class="cls-7" d="M390.17,403.31a8.28,8.28,0,0,1-4-1l1.3-2.86a4.75,4.75,0,0,0,2.25.63,2.17,2.17,0,0,0,1.37-.42,4,4,0,0,0,1-1.51l-7-16.77h4.1L394,393.82l4.35-12.45h4l-6.67,17.24a9.34,9.34,0,0,1-2.25,3.64A4.85,4.85,0,0,1,390.17,403.31Z" transform="translate(-121.22 -325.06)"/></svg>