<svg width="40" height="40" viewBox="0 0 60 60" fill="none" xmlns="http://www.w3.org/2000/svg">
            <circle cx="30" cy="30" r="30" fill="#C3D2DC"/>
            <path
              d="M22 30C22 31.6569 20.6569 33 19 33C17.3431 33 16 31.6569 16 30C16 28.3431 17.3431 27 19 27C20.6569 27 22 28.3431 22 30Z"
              fill="#2E2124"/>
            <path
              d="M33 30C33 31.6569 31.6569 33 30 33C28.3431 33 27 31.6569 27 30C27 28.3431 28.3431 27 30 27C31.6569 27 33 28.3431 33 30Z"
              fill="#2E2124"/>
            <path
              d="M44 30C44 31.6569 42.6569 33 41 33C39.3431 33 38 31.6569 38 30C38 28.3431 39.3431 27 41 27C42.6569 27 44 28.3431 44 30Z"
              fill="#2E2124"/>
          </svg>