<svg xmlns:xlink="http://www.w3.org/1999/xlink"  width="100" height="100" viewBox="0 0 100 100" fill="none" xmlns="http://www.w3.org/2000/svg">
                  <path d="M27.997 100H1.38882C1.02332 100 0.584796 99.8502 0.365498 99.5508C0.0730995 99.2514 0 98.8023 0 98.4281L0.584653 92.8892C0.657753 90.4192 2.55834 88.473 4.97062 88.473H10.7454V87.0509C8.33313 85.2545 6.79811 81.8113 6.79811 77.9939C6.79811 77.6945 6.79811 77.3204 6.79811 77.021C6.87121 75.8983 7.09044 74.7754 7.45594 73.7275C8.69863 69.985 11.4766 67.5898 14.6199 67.5898C17.6901 67.5898 20.4677 69.985 21.7835 73.7275C22.0759 74.5508 22.222 75.3743 22.3682 76.2725C22.4413 76.8713 22.5145 77.47 22.5145 77.9939C22.5145 81.6616 21.0524 85.1048 18.7132 86.9012V88.3982H24.4883C26.9006 88.3982 28.8743 90.3443 28.8743 92.8143L29.459 98.3533C29.5321 98.7276 29.3859 99.1767 29.0935 99.4761C28.8011 99.7755 28.4356 100 27.997 100ZM2.99679 97.0807H26.4618L26.0231 93.1138C26.0231 93.039 26.0231 93.0388 26.0231 92.964C26.0231 92.0658 25.2924 91.3173 24.4152 91.3173H17.2512C16.4471 91.3173 15.8624 90.6437 15.8624 89.8952V86.1527C15.8624 85.6288 16.1547 85.1797 16.5202 84.8803C18.4208 83.6827 19.6637 80.988 19.6637 77.9192C19.6637 77.4701 19.6636 77.0209 19.5905 76.5718C19.5174 75.8982 19.3712 75.2245 19.1519 74.6257C18.2747 72.0808 16.5202 70.4342 14.6927 70.4342C12.8652 70.4342 11.1111 72.0808 10.2339 74.6257C9.94153 75.449 9.79519 76.3473 9.72209 77.1707C9.72209 77.3952 9.72209 77.6946 9.72209 77.9192C9.72209 80.988 11.0378 83.8323 12.9384 84.955C13.377 85.1796 13.6694 85.7035 13.6694 86.2275V89.8952C13.6694 90.7186 13.0116 91.3173 12.2806 91.3173H5.11697C4.23977 91.3173 3.50863 92.0658 3.50863 92.964C3.50863 93.0388 3.50863 93.039 3.50863 93.1138L2.99679 97.0807Z" fill="black"></path>
                  <path d="M97.3687 99.9251H72.5881C72.1495 99.9251 71.784 99.7755 71.5647 99.4761C71.2723 99.1767 71.1992 98.7276 71.1992 98.3533L71.7839 93.2635C71.857 90.9431 73.6847 89.0718 76.0239 89.0718H81.2868V87.9491C79.0208 86.2275 77.6319 83.0089 77.6319 79.4909C77.6319 79.1915 77.6319 78.8922 77.6319 78.5928C77.705 77.5449 77.9245 76.497 78.2169 75.4491C79.3865 71.9311 82.0178 69.6857 84.9418 69.6857C87.8658 69.6857 90.4975 71.9311 91.6671 75.4491C91.9595 76.1976 92.1055 77.0209 92.1786 77.8443C92.2517 78.4431 92.2518 78.967 92.2518 79.4909C92.2518 82.9341 90.8629 86.0779 88.67 87.8743V89.1467H93.9333C96.1994 89.1467 98.0998 91.0179 98.1729 93.3382L98.7576 98.4281C98.8307 98.8023 98.6845 99.2514 98.3921 99.5508C98.1728 99.7754 97.8073 99.9251 97.3687 99.9251ZM74.1964 97.0807H95.8336L95.4681 93.4881C95.4681 93.4132 95.4681 93.4131 95.4681 93.3382C95.4681 92.5897 94.8834 91.9162 94.0793 91.9162H87.4271C86.623 91.9162 86.0383 91.2426 86.0383 90.4941V87.0509C86.0383 86.5269 86.3306 86.0779 86.6961 85.7785C88.4505 84.7306 89.5473 82.1857 89.5473 79.4162C89.5473 79.0419 89.5472 78.5929 89.4741 78.1438C89.401 77.545 89.2548 76.8712 89.0355 76.3473C88.2314 74.0269 86.6962 72.53 84.9418 72.53C83.2605 72.53 81.6523 74.0269 80.8482 76.3473C80.5558 77.0958 80.4099 77.9191 80.4099 78.7424C80.4099 78.967 80.4099 79.1916 80.4099 79.4162C80.4099 82.2605 81.5792 84.8053 83.4067 85.8532C83.8453 86.0778 84.1376 86.6019 84.1376 87.1258V90.4941C84.1376 91.3174 83.4798 91.9162 82.7488 91.9162H76.0967C75.3657 91.9162 74.7079 92.5149 74.7079 93.3382C74.7079 93.4131 74.7079 93.4132 74.7079 93.4881L74.1964 97.0807Z" fill="black"></path>
                  <path d="M98.6108 53.8922C97.8067 53.8922 97.222 53.2186 97.222 52.4701C97.222 29.3414 78.874 10.554 56.2863 10.554H45.6137C23.0259 10.554 4.67793 29.3414 4.67793 52.4701C4.67793 53.2935 4.0201 53.8922 3.28911 53.8922C2.48501 53.8922 1.89993 53.2186 1.89993 52.4701C1.89993 27.7695 21.4908 7.70963 45.6137 7.70963H56.2863C80.4091 7.70963 99.9996 27.7695 99.9996 52.4701C99.9996 53.2186 99.4149 53.8922 98.6108 53.8922Z" fill="black"></path>
                  <path d="M98.3912 53.7426C98.0989 53.7426 97.7336 53.6678 97.5143 53.4433L93.9325 50.3743C87.3535 44.7606 77.7775 44.7606 71.2716 50.3743L67.6895 53.4433C67.1778 53.8924 66.3737 53.8924 65.862 53.4433L62.2802 50.3743C55.7012 44.7606 46.1252 44.7606 39.6193 50.3743L36.0375 53.4433C35.5258 53.8924 34.7217 53.8924 34.21 53.4433L30.6282 50.3743C24.0493 44.7606 14.4731 44.7606 7.89419 50.3743L4.31238 53.4433C3.72759 53.9672 2.85025 53.8923 2.33855 53.2187C1.82686 52.6199 1.90017 51.7217 2.55806 51.1978L6.13987 48.1288C13.7422 41.6168 24.8533 41.6168 32.4557 48.1288L35.1602 50.4493L37.865 48.1288C45.4673 41.6168 56.5785 41.6168 64.1808 48.1288L66.8856 50.4493L69.5901 48.1288C77.1925 41.6168 88.3036 41.6168 95.9059 48.1288L99.4877 51.1978C100.073 51.7217 100.146 52.6199 99.7073 53.2187C99.1956 53.5929 98.8298 53.7426 98.3912 53.7426Z" fill="black"></path>
                  <path d="M50.0732 10.9282C49.2691 10.9282 48.684 10.2544 48.684 9.50594V1.42226C48.684 0.598912 49.3422 0 50.0732 0C50.8773 0 51.462 0.673762 51.462 1.42226V9.50594C51.462 10.2544 50.8042 10.9282 50.0732 10.9282Z" fill="black"></path>
                  <path d="M50.2919 60.0299C49.4878 60.0299 48.9031 59.3563 48.9031 58.6078V44.7605C48.9031 43.9371 49.5609 43.3384 50.2919 43.3384C51.0229 43.3384 51.6807 44.012 51.6807 44.7605V58.6078C51.6807 59.3563 51.0229 60.0299 50.2919 60.0299Z" fill="black"></path>
                  <path d="M30.1897 32.1856C26.6809 32.1856 23.8299 29.2665 23.8299 25.6737C23.8299 22.0809 26.6809 19.1617 30.1897 19.1617C33.6984 19.1617 36.5495 22.0809 36.5495 25.6737C36.5495 29.2665 33.6984 32.1856 30.1897 32.1856ZM30.1897 22.0808C28.216 22.0808 26.681 23.7276 26.681 25.6737C26.681 27.6198 28.2891 29.2665 30.1897 29.2665C32.1634 29.2665 33.6983 27.6198 33.6983 25.6737C33.6983 23.7276 32.1634 22.0808 30.1897 22.0808Z" fill="#B4C88C"></path>
                  <path d="M68.2753 99.9251H32.3834C32.0179 99.9251 31.5793 99.7755 31.36 99.4761C31.0676 99.1767 30.9945 98.7276 30.9945 98.3533L31.7987 90.8683C31.8718 87.7994 34.2841 85.3293 37.2812 85.3293H45.5413V82.7095C42.2518 80.3892 40.2051 75.8233 40.2051 70.7335C40.2051 70.2844 40.2049 69.9102 40.278 69.4611C40.3511 67.9641 40.6436 66.467 41.1553 65.1197C42.7635 60.3293 46.3454 57.1857 50.2927 57.1857C54.2401 57.1857 57.822 60.2544 59.4302 65.1197C59.7957 66.1676 60.015 67.2904 60.1612 68.488C60.2343 69.3113 60.3075 70.0598 60.3075 70.7335C60.3075 75.6736 58.3338 80.1647 55.1906 82.5599V85.3293H63.4507C66.4477 85.3293 68.86 87.7994 68.9331 90.8683L69.7373 98.3533C69.8104 98.7276 69.6642 99.1767 69.3718 99.4761C69.0794 99.7755 68.7139 99.9251 68.2753 99.9251ZM33.9917 97.0807H66.7401L66.0823 91.1676C66.0823 91.0928 66.0823 91.0928 66.0823 91.018C66.0823 89.521 64.9126 88.3233 63.4507 88.3233H53.8014C52.9973 88.3233 52.4126 87.6497 52.4126 86.9012V81.8863C52.4126 81.3623 52.7049 80.9131 53.0704 80.6137C55.7751 78.967 57.5295 75.0749 57.5295 70.8084C57.5295 70.2096 57.4566 69.6108 57.3835 68.9372C57.2373 67.9641 57.0178 67.0659 56.7254 66.1677C55.4827 62.5749 52.9974 60.1797 50.2196 60.1797C47.5149 60.1797 44.9565 62.5001 43.7138 66.1677C43.3483 67.2905 43.0559 68.5628 42.9828 69.7604C42.9828 70.1346 42.9096 70.4342 42.9096 70.8084C42.9096 75.1497 44.7373 79.1167 47.5151 80.6886C47.9537 80.9132 48.2461 81.4371 48.2461 81.961V86.8263C48.2461 87.6496 47.5879 88.2486 46.8569 88.2486H37.208C35.746 88.2486 34.5763 89.446 34.5763 90.943C34.5763 91.0179 34.5763 91.0179 34.5763 91.0927L33.9917 97.0807Z" fill="#B4C88C"></path>
                </svg>