<svg xmlns:xlink="http://www.w3.org/1999/xlink"  width="100" height="100" viewBox="0 0 100 100" fill="none" xmlns="http://www.w3.org/2000/svg">
                  <path d="M32.5852 42.7507C32.235 42.7507 31.8701 42.6176 31.5928 42.3513L29.4183 40.3097C28.8345 39.7476 28.7907 38.8156 29.3453 38.2238C29.8999 37.6173 30.8193 37.5877 31.4031 38.1499L33.5776 40.1914C34.1614 40.7535 34.2052 41.6856 33.6506 42.2773C33.3587 42.588 32.9793 42.7507 32.5852 42.7507Z" fill="black"></path>
                  <path d="M30.6728 52.6477C30.2934 52.6477 29.9139 52.4998 29.622 52.1891L23.7259 45.9758C23.1714 45.384 23.186 44.452 23.7697 43.8898C24.3535 43.3277 25.273 43.3425 25.8275 43.9342L31.7236 50.1476C32.2782 50.7393 32.2636 51.6713 31.6798 52.2335C31.4025 52.4998 31.0231 52.6477 30.6728 52.6477Z" fill="black"></path>
                  <path d="M24.7625 57.8995C24.383 57.8995 24.0181 57.7516 23.7263 57.4705L9.61365 43.1354C6.44671 39.9252 4.68079 35.6942 4.56404 31.1525L0.536054 27.8091C-0.0914972 27.2913 -0.179084 26.3593 0.331714 25.7232C0.842512 25.087 1.76196 24.9983 2.38951 25.5161L6.95751 29.3033C7.30777 29.5843 7.49749 30.0134 7.49749 30.472C7.43911 34.4811 8.92773 38.2387 11.7006 41.0495L25.8132 55.3846C26.3824 55.9616 26.3824 56.8936 25.8132 57.4705C25.5068 57.7516 25.1419 57.8995 24.7625 57.8995Z" fill="black"></path>
                  <path d="M45.2674 32.8535C44.8879 32.8535 44.5231 32.7056 44.2312 32.4245L36.686 24.7614C36.2482 24.3176 36.1314 23.637 36.4087 23.0749C36.686 22.5127 37.2698 22.1873 37.8973 22.2464L45.676 23.1932C46.2744 23.2672 46.8582 23.0897 47.3398 22.7198C47.8214 22.3352 48.1133 21.7878 48.1862 21.1813L48.2446 20.6487C48.3905 19.3913 47.5003 18.2373 46.2598 18.0894L26.1343 15.6484C23.9306 15.323 21.7707 15.3822 19.6983 15.8112C19.2459 15.8999 18.7643 15.7668 18.4286 15.4561L14.3568 11.6837C13.7585 11.1364 13.7147 10.2043 14.2692 9.5978C14.8092 8.99126 15.7433 8.94688 16.327 9.50904L19.8734 12.7932C22.048 12.4234 24.2955 12.4086 26.5722 12.7489L46.6247 15.175C49.4559 15.5153 51.4991 18.1338 51.1634 21.0186L51.1051 21.5511C50.9445 22.9417 50.2586 24.1844 49.164 25.0572C48.0695 25.9301 46.7122 26.3147 45.3549 26.152L41.7502 25.723L46.3182 30.3682C46.8873 30.9451 46.8873 31.8772 46.3182 32.4541C46.0117 32.7056 45.6322 32.8535 45.2674 32.8535Z" fill="black"></path>
                  <path d="M37.503 36.2861C37.1527 36.2861 36.817 36.1678 36.5397 35.9163L35.0803 34.6144C34.482 34.0671 34.4236 33.135 34.9636 32.5285C35.5035 31.922 36.423 31.8628 37.0214 32.4102L38.4808 33.712C39.0791 34.2594 39.1375 35.1914 38.5975 35.7979C38.3057 36.1086 37.9116 36.2861 37.503 36.2861Z" fill="black"></path>
                  <path d="M67.6987 42.2035C67.3192 42.2035 66.9398 42.0556 66.6479 41.7449C66.0933 41.1531 66.1079 40.2211 66.6917 39.659L68.2241 38.1648C68.8078 37.6026 69.7272 37.6174 70.2818 38.2092C70.8364 38.8009 70.8218 39.7329 70.238 40.2951L68.7056 41.7893C68.4284 42.0556 68.0635 42.2035 67.6987 42.2035Z" fill="black"></path>
                  <path d="M73.3468 47.8396C72.9528 47.8396 72.5587 47.6769 72.2668 47.3514C71.7269 46.7448 71.7706 45.8128 72.369 45.2655L73.8868 43.8601C74.4851 43.3127 75.4046 43.3571 75.9446 43.9636C76.4846 44.5702 76.4408 45.5022 75.8424 46.0495L74.3246 47.4549C74.0619 47.7064 73.7117 47.8396 73.3468 47.8396Z" fill="black"></path>
                  <path d="M74.8791 57.8996C74.4996 57.8996 74.1348 57.7517 73.8429 57.4706C73.2737 56.8936 73.2737 55.9616 73.8429 55.3847L87.9555 41.0496C90.7284 38.2387 92.217 34.4811 92.1586 30.472C92.1586 30.0874 92.29 29.7176 92.5527 29.4365L97.4855 24.1699C98.0401 23.5782 98.9595 23.5486 99.5433 24.1107C100.127 24.6729 100.156 25.6049 99.6017 26.1967L95.0775 31.0342C94.9899 35.6203 93.224 39.8956 90.0279 43.1355L75.9153 57.4706C75.6234 57.7517 75.2439 57.8996 74.8791 57.8996Z" fill="black"></path>
                  <path d="M54.6514 32.5874C54.272 32.5874 53.9071 32.4395 53.6152 32.1584C53.0461 31.5814 53.0461 30.6494 53.6152 30.0725L57.9205 25.7083L54.3158 26.1374C52.9439 26.3001 51.5866 25.9154 50.5067 25.0426C49.4121 24.1698 48.7262 22.9271 48.5656 21.5365L48.5073 21.0039C48.1716 18.1192 50.2002 15.5007 53.0461 15.1604L72.9672 12.749C75.3461 12.394 77.5936 12.4088 79.7535 12.7638L83.1102 9.36127C83.6794 8.78432 84.5988 8.78432 85.1679 9.36127C85.7371 9.93823 85.7371 10.8702 85.1679 11.4472L81.2713 15.4119C80.921 15.767 80.4248 15.9149 79.9432 15.8113C77.8854 15.3823 75.7109 15.3379 73.5072 15.6486L73.3028 15.6782L53.3817 18.0896C52.1412 18.2375 51.251 19.3914 51.3969 20.6489L51.4553 21.1815C51.5283 21.788 51.8347 22.3354 52.3018 22.72C52.7834 23.1046 53.3671 23.2674 53.9655 23.1934L61.7442 22.2466C62.3718 22.1726 62.9555 22.4981 63.2328 23.0751C63.5101 23.652 63.3934 24.3177 62.9555 24.7615L55.6876 32.1436C55.4103 32.4395 55.0309 32.5874 54.6514 32.5874Z" fill="black"></path>
                  <path d="M61.9487 36.7443C61.5838 36.7443 61.2336 36.6112 60.9563 36.3449C60.3725 35.7827 60.3433 34.8507 60.8833 34.259L62.5178 32.4837C63.0724 31.892 63.9919 31.8624 64.5756 32.4098C65.1594 32.9719 65.1886 33.9039 64.6486 34.4957L63.014 36.2709C62.7367 36.5816 62.3427 36.7443 61.9487 36.7443Z" fill="black"></path>
                  <path d="M69.2607 63.1366C68.458 63.1366 67.8012 62.4857 67.8012 61.672L67.7283 49.4376C67.7137 47.9878 66.5753 46.8191 65.1889 46.8043H65.1743C64.5321 46.8043 63.9192 47.0558 63.4522 47.5292C62.9706 48.0174 62.7079 48.6683 62.7079 49.3636L62.7808 61.5981C62.7808 62.4117 62.1387 63.0774 61.336 63.0922C60.4603 63.0774 59.8766 62.4413 59.862 61.6276L59.789 49.3932C59.7744 47.8991 60.3436 46.4937 61.3798 45.4433C62.4014 44.4077 63.7733 43.8308 65.1889 43.8456C68.1661 43.8604 70.618 46.3605 70.6325 49.4228L70.7055 61.6572C70.7347 62.4709 70.0779 63.1366 69.2607 63.1366C69.2607 63.1366 69.2753 63.1366 69.2607 63.1366Z" fill="#B4C88C"></path>
                  <path d="M61.3355 63.0919C60.5328 63.0919 59.876 62.441 59.876 61.6273L59.7593 43.2831C59.7447 41.8333 58.6064 40.6646 57.2199 40.6498H57.2053C56.5632 40.6498 55.9502 40.9013 55.4832 41.3747C55.0016 41.8629 54.7389 42.5138 54.7389 43.2091L54.8556 61.5533C54.8556 62.367 54.2135 63.0327 53.4108 63.0475C53.4108 63.0475 53.4108 63.0475 53.3962 63.0475C52.5935 63.0475 51.9368 62.3966 51.9368 61.5829L51.82 43.2387C51.8054 41.7446 52.3746 40.3391 53.4108 39.2888C54.4324 38.2532 55.7751 37.6911 57.1907 37.6911C57.2053 37.6911 57.2053 37.6911 57.2199 37.6911C60.1971 37.7059 62.649 40.206 62.6636 43.2683L62.7803 61.6125C62.7949 62.4114 62.1527 63.0919 61.3355 63.0919Z" fill="#B4C88C"></path>
                  <path d="M53.3965 63.0329C52.5938 63.0329 51.9371 62.382 51.9371 61.5683L51.8058 39.141C51.7912 37.6913 50.6528 36.5226 49.2663 36.5078H49.2518C48.6096 36.5078 47.9967 36.7593 47.5296 37.2327C47.048 37.7208 46.7853 38.3718 46.7853 39.0671L46.9167 61.4944C46.9167 62.308 46.2745 62.9737 45.4718 62.9885C45.4718 62.9885 45.4719 62.9885 45.4573 62.9885C44.6546 62.9885 43.9979 62.3376 43.9979 61.524L43.8665 39.0967C43.8519 37.6025 44.4211 36.1971 45.4573 35.1467C46.4789 34.1112 47.7923 33.5342 49.2663 33.549C52.2436 33.5638 54.6954 36.0639 54.71 39.1263L54.8413 61.5535C54.8705 62.3672 54.2138 63.0329 53.3965 63.0329C53.4111 63.0329 53.4111 63.0329 53.3965 63.0329Z" fill="#B4C88C"></path>
                  <path d="M64.5175 92.8567H64.5029C63.7002 92.8419 63.058 92.1762 63.058 91.3625L63.1456 85.4598C63.1456 85.0752 63.3062 84.7053 63.5835 84.4242C66.3855 81.643 67.9033 77.9002 67.8887 73.8911L67.772 53.5054C67.772 52.6917 68.4141 52.026 69.2168 52.0112C69.2168 52.0112 69.2168 52.0112 69.2314 52.0112C70.0341 52.0112 70.6908 52.6621 70.6908 53.4758L70.8076 73.8615C70.8368 78.4624 69.1584 82.7674 66.0645 86.0811L65.9915 91.3921C65.9623 92.2205 65.3201 92.8567 64.5175 92.8567Z" fill="#B4C88C"></path>
                  <path d="M43.9834 92.857C43.9688 92.857 43.9688 92.857 43.9542 92.857C43.1516 92.8422 42.5094 92.1617 42.524 91.348L42.597 87.8863C40.8311 86.5696 39.2549 84.9719 37.883 83.0931L25.3758 66.7904C23.6099 64.4974 23.9893 61.1688 26.2077 59.3788L26.6163 59.0385C27.6817 58.1805 29.0243 57.7959 30.3962 57.9586C31.7826 58.1213 33.0232 58.8314 33.8842 59.9557L36.1025 62.8553L35.9858 43.1057C35.9712 41.6115 36.5404 40.2061 37.5766 39.1558C38.5836 38.135 39.9262 37.558 41.3565 37.558C41.3711 37.558 41.3856 37.558 41.3856 37.558C44.3629 37.5728 46.8001 40.073 46.8293 43.1353L46.9461 57.0414C46.9461 57.855 46.3039 58.5208 45.5012 58.5355C45.5012 58.5355 45.5012 58.5355 45.4866 58.5355C44.684 58.5355 44.0272 57.8846 44.0272 57.071L43.9105 43.1649C43.8959 41.7151 42.7575 40.5316 41.3711 40.5316C40.7289 40.5464 40.1014 40.7831 39.6343 41.2565C39.1527 41.7447 38.8901 42.3956 38.8901 43.0909L39.036 67.2047C39.036 67.8408 38.6419 68.403 38.0582 68.6101C37.4598 68.8172 36.8177 68.6249 36.4236 68.1219L31.5637 61.7902C31.1843 61.302 30.6443 60.9913 30.0313 60.9173C29.4476 60.8434 28.8784 61.0061 28.426 61.3759L28.0174 61.7162C27.0395 62.5003 26.8936 63.9648 27.6671 64.9856L40.2181 81.3475C41.5608 83.1819 43.1224 84.7204 44.8883 85.9187C45.2969 86.1998 45.545 86.6732 45.5304 87.1762L45.4428 91.422C45.4283 92.2208 44.7715 92.857 43.9834 92.857Z" fill="#B4C88C"></path>
                </svg>