<svg xmlns:xlink="http://www.w3.org/1999/xlink"  width="100" height="100" viewBox="0 0 100 100" fill="none" xmlns="http://www.w3.org/2000/svg">
                  <path d="M50.0753 39.9395C45.5094 39.9395 41.8417 36.2608 41.8417 31.6812C41.8417 27.1017 45.5094 23.423 50.0753 23.423C54.6412 23.423 58.3089 27.1017 58.3089 31.6812C58.3838 36.2608 54.6412 39.9395 50.0753 39.9395ZM50.0753 26.2758C47.1561 26.2758 44.6861 28.6783 44.6861 31.6812C44.6861 34.6092 47.0813 37.0866 50.0753 37.0866C53.0693 37.0866 55.4645 34.6842 55.4645 31.6812C55.4645 28.7533 53.0693 26.2758 50.0753 26.2758Z" fill="#B4C88C"></path>
                  <path d="M50.2247 99.3992C49.4013 99.3992 48.8026 98.7235 48.8026 97.9728V62.087C48.8026 61.2612 49.4762 60.6606 50.2247 60.6606C51.0481 60.6606 51.647 61.3362 51.647 62.087V97.9728C51.647 98.7235 51.0481 99.3992 50.2247 99.3992Z" fill="black"></path>
                  <path d="M50.0752 63.5135C45.7338 63.5135 43.1889 56.6816 42.7398 49.4744C37.2756 54.2041 30.6889 57.2072 27.6948 54.2042C26.1229 52.6276 26.0479 49.8498 27.545 46.4714C28.5929 44.069 30.2396 41.5165 32.4103 39.1141C25.2246 38.5886 18.4132 36.036 18.4132 31.7567C18.4132 27.4024 25.2246 24.8498 32.4103 24.3994C30.2396 21.9219 28.5929 19.3694 27.545 17.0421C26.0479 13.6637 26.1229 10.8859 27.6948 9.30931C30.7637 6.23124 37.3505 9.30935 42.7398 14.0391C43.2637 6.83187 45.8087 0 50.0752 0C54.4166 0 56.9615 6.83187 57.4107 14.0391C62.8748 9.30935 69.4616 6.30631 72.4556 9.30931C75.5245 12.3874 72.4558 18.994 67.7401 24.3994C74.9258 24.9249 81.7373 27.4775 81.7373 31.7567C81.7373 36.036 74.9258 38.6637 67.7401 39.1141C72.4558 44.5195 75.4497 51.2012 72.4556 54.2042C69.3867 57.2822 62.7999 54.2041 57.4107 49.4744C56.9615 56.6816 54.4166 63.5135 50.0752 63.5135ZM44.162 44.6696C44.3117 44.6696 44.5363 44.6697 44.686 44.7447C45.2099 44.97 45.5841 45.4954 45.5841 46.096V46.3963C45.5841 46.5465 45.5841 46.6966 45.5841 46.7717C45.5841 55.1801 48.2789 60.5105 50.1501 60.5105C52.0214 60.5105 54.7159 55.1801 54.7159 46.7717C54.7159 46.6216 54.7159 46.4714 54.7159 46.3213V46.096C54.7159 45.4954 55.0902 44.97 55.6141 44.7447C56.1381 44.5195 56.8118 44.6696 57.1861 45.045L57.6352 45.5705C63.5485 51.5015 69.2371 53.3783 70.5096 52.027C71.7821 50.6756 69.9856 45.045 64.0723 39.1141C63.9975 39.039 63.8478 38.8889 63.773 38.8138L63.6233 38.6636C63.1742 38.2131 63.0244 37.6126 63.3238 37.087C63.5484 36.5615 64.0724 36.1111 64.6712 36.1862H64.9705C65.1202 36.1862 65.2699 36.1862 65.3448 36.1862C73.7281 36.1862 79.0425 33.4835 79.0425 31.6066C79.0425 29.7297 73.7281 27.027 65.3448 27.027C65.1951 27.027 65.0455 27.027 64.8958 27.027H64.6712C64.0724 27.027 63.5484 26.6516 63.3238 26.1261C63.0993 25.6006 63.2491 24.9249 63.6233 24.5496L63.8477 24.3243C63.9226 24.2492 64.0724 24.1741 64.1473 24.024C66.9167 21.2462 69.0126 18.3183 70.1353 15.6156C71.0336 13.5135 71.258 11.7117 70.5843 11.0361C69.9107 10.3604 68.1892 10.5856 66.0185 11.4865C63.3239 12.6126 60.4047 14.7898 57.6352 17.4925C57.5604 17.5676 57.4106 17.7177 57.3357 17.7928L57.1111 18.018C56.662 18.4684 56.0633 18.5435 55.5394 18.3183C55.0154 18.0931 54.6412 17.5676 54.6412 16.967V16.6667C54.6412 16.5165 54.6412 16.3664 54.6412 16.2163C54.6412 7.80787 51.9465 2.47751 50.0752 2.47751C48.2039 2.47751 45.5092 7.80787 45.5092 16.2163C45.5092 16.3664 45.5092 16.5166 45.5092 16.5916V16.8919C45.5092 17.4925 45.135 18.018 44.611 18.2432C44.0871 18.4685 43.4135 18.3183 43.0393 17.9429L42.8894 17.7928C42.8146 17.7177 42.665 17.5676 42.5901 17.4925C39.8206 14.7147 36.9015 12.6126 34.2068 11.4865C32.111 10.5856 30.3145 10.4355 29.6408 11.0361C28.9672 11.7117 29.1918 13.4384 30.09 15.6156C31.2128 18.3183 33.3835 21.2462 36.0781 24.024C36.1529 24.0991 36.2277 24.1741 36.3774 24.3243L36.602 24.5496C37.0511 25 37.1259 25.6006 36.9013 26.1261C36.6768 26.6516 36.153 27.027 35.5542 27.027H35.3296C35.1799 27.027 35.0301 27.027 34.8804 27.027C26.4971 27.027 21.1826 29.7297 21.1826 31.6066C21.1826 33.4835 26.4971 36.1862 34.8804 36.1862C35.0301 36.1862 35.1798 36.1862 35.2547 36.1862H35.5542C36.153 36.1862 36.6768 36.5615 36.9013 37.087C37.1259 37.6126 36.9763 38.2882 36.602 38.6636L36.3774 38.8138C36.3026 38.8889 36.1529 39.039 36.0781 39.1141C33.3086 41.8919 31.2128 44.8198 30.09 47.5225C29.1918 49.6246 28.9672 51.4263 29.6408 52.102C30.9881 53.3783 36.6019 51.5765 42.5152 45.6456L42.9644 45.1201C43.3386 44.8198 43.7129 44.6696 44.162 44.6696Z" fill="black"></path>
                  <path d="M50.2248 100C50.1499 100 50.075 100 50.0002 100C48.3535 99.7748 10.3291 94.2193 10.3291 74.0992C10.3291 56.2314 1.19742 51.1262 0.748311 50.9761C0.149502 50.6758 -0.150012 49.9251 0.0745411 49.2494C0.299094 48.5737 0.972827 48.1233 1.64649 48.2734C3.29321 48.4986 41.3176 54.0542 41.3176 74.1743C41.3176 92.0421 50.4494 97.1472 50.8985 97.2974C51.4973 97.5977 51.7967 98.3484 51.5721 99.024C51.4224 99.6246 50.8236 100 50.2248 100ZM6.43688 52.1022C9.58063 55.7809 13.2484 62.5376 13.2484 74.1743C13.2484 87.7628 35.0301 93.9941 45.2847 96.2463C42.141 92.5676 38.4732 85.8109 38.4732 74.1743C38.4732 60.5857 16.6166 54.2794 6.43688 52.1022Z" fill="#B4C88C"></path>
                  <path d="M49.776 99.9997C49.1772 99.9997 48.5783 99.6243 48.4286 99.0237C48.2041 98.348 48.5035 97.5973 49.1771 97.297C49.5514 97.0718 58.6832 92.0417 58.6832 74.1739C58.6832 54.0538 96.7075 48.4982 98.3543 48.273C99.0279 48.1979 99.7016 48.5734 99.9262 49.249C100.151 49.9247 99.8513 50.6754 99.1777 50.9757C98.8034 51.2009 89.6714 56.231 89.6714 74.0988C89.6714 94.2189 51.6471 99.7744 50.0004 99.9997C49.9255 99.9997 49.8508 99.9997 49.776 99.9997ZM93.5639 52.1018C83.3841 54.279 61.5276 60.5853 61.5276 74.1739C61.5276 85.8105 57.8598 92.5673 54.716 96.2459C64.8958 94.0688 86.7523 87.7624 86.7523 74.1739C86.7523 62.5373 90.4201 55.7054 93.5639 52.1018Z" fill="#B4C88C"></path>
                </svg>